<svg xmlns="http://www.w3.org/2000/svg" xmlns:xlink="http://www.w3.org/1999/xlink" width="40" height="40" viewBox="0 0 40 40">
  <defs>
    <clipPath id="clip-path">
      <rect id="Rectangle_33" data-name="Rectangle 33" width="40" height="40" transform="translate(770 3441)" fill="#fff" stroke="#707070" stroke-width="1"/>
    </clipPath>
  </defs>
  <g id="Mask_Group_5" data-name="Mask Group 5" transform="translate(-770 -3441)" clip-path="url(#clip-path)">
    <g id="icon" transform="translate(770 3441)">
      <g id="Group_3" data-name="Group 3">
        <g id="Group_2" data-name="Group 2">
          <path id="Path_2" data-name="Path 2" d="M27.5,0h-15A12.5,12.5,0,0,0,0,12.5v15A12.5,12.5,0,0,0,12.5,40h15A12.5,12.5,0,0,0,40,27.5v-15A12.5,12.5,0,0,0,27.5,0Zm8.75,27.5a8.76,8.76,0,0,1-8.75,8.75h-15A8.76,8.76,0,0,1,3.75,27.5v-15A8.76,8.76,0,0,1,12.5,3.75h15a8.76,8.76,0,0,1,8.75,8.75Z" fill="#fff"/>
        </g>
      </g>
      <g id="Group_5" data-name="Group 5">
        <g id="Group_4" data-name="Group 4">
          <path id="Path_3" data-name="Path 3" d="M20,10A10,10,0,1,0,30,20,10,10,0,0,0,20,10Zm0,16.25A6.25,6.25,0,1,1,26.25,20,6.259,6.259,0,0,1,20,26.25Z" fill="#fff"/>
        </g>
      </g>
      <g id="Group_7" data-name="Group 7">
        <g id="Group_6" data-name="Group 6">
          <circle id="Ellipse_1" data-name="Ellipse 1" cx="1.332" cy="1.332" r="1.332" transform="translate(29.417 7.918)" fill="#fff"/>
        </g>
      </g>
    </g>
  </g>
</svg>
